<?xml version="1.0" encoding="UTF-8"?>
<svg xmlns="http://www.w3.org/2000/svg" width="1440" height="1024" viewBox="0 0 1440 1024" role="img" aria-label="Ingredient Approvals">

    <defs>
      <linearGradient id="warmHero" x1="0" x2="1" y1="0" y2="1">
        <stop offset="0" stop-color="#FDEEEA"/>
        <stop offset="0.48" stop-color="#E9F7F3"/>
        <stop offset="1" stop-color="#FFF4D7"/>
      </linearGradient>
      <linearGradient id="sidebarGrad" x1="0" x2="0" y1="0" y2="1">
        <stop offset="0" stop-color="#263743"/>
        <stop offset="1" stop-color="#1E2933"/>
      </linearGradient>
      <pattern id="dotGrid" width="34" height="34" patternUnits="userSpaceOnUse">
        <circle cx="2" cy="2" r="1.2" fill="#D9DFDD"/>
      </pattern>
    </defs>
<title>Ingredient Approvals</title>
<rect x="0" y="0" width="1440" height="1024" fill="#FAF8F2"/><rect x="0" y="0" width="248" height="1024" fill="url(#sidebarGrad)"/><circle cx="52" cy="52" r="22" fill="#2A9D8F" stroke="#78D5C9" stroke-width="1.5"/><g transform="translate(40 40) scale(1)"><path stroke="#FFFFFF" stroke-width="2" stroke-linecap="round" stroke-linejoin="round" fill="none" d="M5 19C12 19 19 12 19 5C12 5 5 12 5 19Z"/><path stroke="#FFFFFF" stroke-width="2" stroke-linecap="round" stroke-linejoin="round" fill="none" d="M5 19C9 15 13 11 19 5"/></g><text x="86" y="60" fill="#FFFFFF" font-size="22" font-weight="850" font-family="Inter, SF Pro Display, Arial, sans-serif" letter-spacing="0"><tspan x="86" dy="0">RecipeCollab</tspan></text><text x="30" y="118" fill="#A8B3BA" font-size="13" font-weight="700" font-family="Inter, SF Pro Display, Arial, sans-serif" letter-spacing="0"><tspan x="30" dy="0">Team pantry</tspan></text><g transform="translate(38 137) scale(0.9166666666666666)"><path stroke="#B7C2C8" stroke-width="2" stroke-linecap="round" stroke-linejoin="round" fill="none" d="M3 11L12 4L21 11"/><path stroke="#B7C2C8" stroke-width="2" stroke-linecap="round" stroke-linejoin="round" fill="none" d="M5 10V21H19V10"/><path stroke="#B7C2C8" stroke-width="2" stroke-linecap="round" stroke-linejoin="round" fill="none" d="M10 21V15H14V21"/></g><text x="76" y="154" fill="#B7C2C8" font-size="16" font-weight="650" font-family="Inter, SF Pro Display, Arial, sans-serif" letter-spacing="0"><tspan x="76" dy="0">Dashboard</tspan></text><g transform="translate(38 193) scale(0.9166666666666666)"><rect stroke="#B7C2C8" stroke-width="2" stroke-linecap="round" stroke-linejoin="round" fill="none" x="5" y="4" width="14" height="17" rx="2"/><path stroke="#B7C2C8" stroke-width="2" stroke-linecap="round" stroke-linejoin="round" fill="none" d="M8 8H16M8 12H16M8 16H13"/></g><text x="76" y="210" fill="#B7C2C8" font-size="16" font-weight="650" font-family="Inter, SF Pro Display, Arial, sans-serif" letter-spacing="0"><tspan x="76" dy="0">Ingredients</tspan></text><g transform="translate(38 249) scale(0.9166666666666666)"><circle stroke="#B7C2C8" stroke-width="2" stroke-linecap="round" stroke-linejoin="round" fill="none" cx="9" cy="8" r="3"/><circle stroke="#B7C2C8" stroke-width="2" stroke-linecap="round" stroke-linejoin="round" fill="none" cx="17" cy="10" r="2.5"/><path stroke="#B7C2C8" stroke-width="2" stroke-linecap="round" stroke-linejoin="round" fill="none" d="M3.5 21C4.7 17.2 6.8 15 9.5 15C12.2 15 14.3 17.2 15.5 21"/><path stroke="#B7C2C8" stroke-width="2" stroke-linecap="round" stroke-linejoin="round" fill="none" d="M14 16C16.7 16 18.8 17.7 20.5 21"/></g><text x="76" y="266" fill="#B7C2C8" font-size="16" font-weight="650" font-family="Inter, SF Pro Display, Arial, sans-serif" letter-spacing="0"><tspan x="76" dy="0">Groups</tspan></text><rect x="18" y="296" width="212" height="44" rx="8" fill="rgba(255,255,255,0.12)"/><rect x="18" y="296" width="4" height="44" rx="2" fill="#F4B942"/><g transform="translate(38 305) scale(0.9166666666666666)"><circle stroke="#FFFFFF" stroke-width="2" stroke-linecap="round" stroke-linejoin="round" fill="none" cx="12" cy="12" r="9"/><path stroke="#FFFFFF" stroke-width="2" stroke-linecap="round" stroke-linejoin="round" fill="none" d="M8 12L11 15L17 9"/></g><text x="76" y="322" fill="#FFFFFF" font-size="16" font-weight="800" font-family="Inter, SF Pro Display, Arial, sans-serif" letter-spacing="0"><tspan x="76" dy="0">Requests</tspan></text><g transform="translate(38 361) scale(0.9166666666666666)"><circle stroke="#B7C2C8" stroke-width="2" stroke-linecap="round" stroke-linejoin="round" fill="none" cx="12" cy="12" r="3"/><path stroke="#B7C2C8" stroke-width="2" stroke-linecap="round" stroke-linejoin="round" fill="none" d="M12 2V5M12 19V22M4.9 4.9L7 7M17 17L19.1 19.1M2 12H5M19 12H22M4.9 19.1L7 17M17 7L19.1 4.9"/></g><text x="76" y="378" fill="#B7C2C8" font-size="16" font-weight="650" font-family="Inter, SF Pro Display, Arial, sans-serif" letter-spacing="0"><tspan x="76" dy="0">Settings</tspan></text><rect x="24" y="858" width="200" height="110" rx="8" fill="rgba(255,255,255,0.08)" stroke="rgba(255,255,255,0.16)" stroke-width="1"/><text x="44" y="890" fill="#FFFFFF" font-size="16" font-weight="800" font-family="Inter, SF Pro Display, Arial, sans-serif" letter-spacing="0"><tspan x="44" dy="0">Dinner ready?</tspan></text><text x="44" y="920" fill="#C9D2D7" font-size="13" font-weight="500" font-family="Inter, SF Pro Display, Arial, sans-serif" letter-spacing="0"><tspan x="44" dy="0">Generate ideas from</tspan><tspan x="44" dy="18">the group pantry.</tspan></text><rect x="44" y="940" width="118" height="34" rx="17" fill="#F4B942" stroke-width="1"/><text x="103" y="963" fill="#1F2933" font-size="13" font-weight="700" font-family="Inter, SF Pro Display, Arial, sans-serif" letter-spacing="0" text-anchor="middle"><tspan x="103" dy="0">New recipe</tspan></text><rect x="248" y="0" width="1192" height="86" fill="#FFFFFF" stroke="#E5E7EB" stroke-width="1"/><text x="300" y="38" fill="#1F2933" font-size="26" font-weight="850" font-family="Inter, SF Pro Display, Arial, sans-serif" letter-spacing="0"><tspan x="300" dy="0">Ingredient approvals</tspan></text><text x="300" y="64" fill="#6B7280" font-size="14" font-weight="500" font-family="Inter, SF Pro Display, Arial, sans-serif" letter-spacing="0"><tspan x="300" dy="0">Approve or decline requests before your pantry items are used.</tspan></text><rect x="888" y="24" width="280" height="42" rx="8" fill="#FAF8F2" stroke="#D6D9DE" stroke-width="1"/><g transform="translate(906 34) scale(0.8333333333333334)"><circle stroke="#6B7280" stroke-width="2" stroke-linecap="round" stroke-linejoin="round" fill="none" cx="11" cy="11" r="7"/><path stroke="#6B7280" stroke-width="2" stroke-linecap="round" stroke-linejoin="round" fill="none" d="M16.5 16.5L21 21"/></g><text x="938" y="51" fill="#6B7280" font-size="14" font-weight="500" font-family="Inter, SF Pro Display, Arial, sans-serif" letter-spacing="0"><tspan x="938" dy="0">Search recipes, groups, ingredients</tspan></text><g transform="translate(1198 31) scale(1)"><path stroke="#1F2933" stroke-width="2" stroke-linecap="round" stroke-linejoin="round" fill="none" d="M18 16V11C18 7.6 15.8 5 12 5C8.2 5 6 7.6 6 11V16L4 19H20Z"/><path stroke="#1F2933" stroke-width="2" stroke-linecap="round" stroke-linejoin="round" fill="none" d="M10 21H14"/></g><circle cx="1268" cy="45" r="22" fill="#FDEEEA" stroke="#EF6351" stroke-width="1"/><text x="1268" y="52" fill="#EF6351" font-size="17" font-weight="850" font-family="Inter, SF Pro Display, Arial, sans-serif" letter-spacing="0" text-anchor="middle"><tspan x="1268" dy="0">K</tspan></text><text x="1306" y="42" fill="#1F2933" font-size="15" font-weight="800" font-family="Inter, SF Pro Display, Arial, sans-serif" letter-spacing="0"><tspan x="1306" dy="0">Kartik</tspan></text><text x="1306" y="62" fill="#6B7280" font-size="12" font-weight="600" font-family="Inter, SF Pro Display, Arial, sans-serif" letter-spacing="0"><tspan x="1306" dy="0">Tester</tspan></text><rect x="300" y="126" width="654" height="770" rx="8" fill="#FFFFFF" stroke="#D6D9DE" stroke-width="1"/><text x="330" y="174" fill="#1F2933" font-size="26" font-weight="900" font-family="Inter, SF Pro Display, Arial, sans-serif" letter-spacing="0"><tspan x="330" dy="0">Pending requests</tspan></text><text x="330" y="204" fill="#6B7280" font-size="14" font-weight="500" font-family="Inter, SF Pro Display, Arial, sans-serif" letter-spacing="0"><tspan x="330" dy="0">Members can ask to use ingredients from your list.</tspan></text><rect x="330" y="252" width="578" height="132" rx="8" fill="#FFFFFF" stroke="#D6D9DE" stroke-width="1"/><circle cx="372" cy="294" r="24" fill="#EF6351"/><text x="372" y="301" fill="#FFFFFF" font-size="15" font-weight="900" font-family="Inter, SF Pro Display, Arial, sans-serif" letter-spacing="0" text-anchor="middle"><tspan x="372" dy="0">A</tspan></text><text x="412" y="286" fill="#1F2933" font-size="20" font-weight="900" font-family="Inter, SF Pro Display, Arial, sans-serif" letter-spacing="0"><tspan x="412" dy="0">Ani requested 2 eggs</tspan></text><text x="412" y="314" fill="#6B7280" font-size="14" font-weight="600" font-family="Inter, SF Pro Display, Arial, sans-serif" letter-spacing="0"><tspan x="412" dy="0">Breakfast wraps</tspan></text><rect x="412" y="336" width="118" height="36" rx="8" fill="#2A9D8F" stroke-width="1"/><g transform="translate(430 343) scale(0.9166666666666666)"><path stroke="#FFFFFF" stroke-width="2" stroke-linecap="round" stroke-linejoin="round" fill="none" d="M5 13L10 18L20 6"/></g><text x="462" y="360" fill="#FFFFFF" font-size="13" font-weight="800" font-family="Inter, SF Pro Display, Arial, sans-serif" letter-spacing="0"><tspan x="462" dy="0">Approve</tspan></text><rect x="544" y="336" width="112" height="36" rx="8" fill="#FFFFFF" stroke="#FDEEEA" stroke-width="1"/><g transform="translate(562 343) scale(0.9166666666666666)"><path stroke="#EF6351" stroke-width="2" stroke-linecap="round" stroke-linejoin="round" fill="none" d="M6 6L18 18M18 6L6 18"/></g><text x="594" y="360" fill="#EF6351" font-size="13" font-weight="800" font-family="Inter, SF Pro Display, Arial, sans-serif" letter-spacing="0"><tspan x="594" dy="0">Decline</tspan></text><rect x="718" y="336" width="112" height="36" rx="18" fill="#FAF8F2" stroke="#D6D9DE" stroke-width="1"/><text x="774" y="360" fill="#1F2933" font-size="13" font-weight="700" font-family="Inter, SF Pro Display, Arial, sans-serif" letter-spacing="0" text-anchor="middle"><tspan x="774" dy="0">View recipe</tspan></text><rect x="330" y="422" width="578" height="132" rx="8" fill="#FFFFFF" stroke="#D6D9DE" stroke-width="1"/><circle cx="372" cy="464" r="24" fill="#2A9D8F"/><text x="372" y="471" fill="#FFFFFF" font-size="15" font-weight="900" font-family="Inter, SF Pro Display, Arial, sans-serif" letter-spacing="0" text-anchor="middle"><tspan x="372" dy="0">L</tspan></text><text x="412" y="456" fill="#1F2933" font-size="20" font-weight="900" font-family="Inter, SF Pro Display, Arial, sans-serif" letter-spacing="0"><tspan x="412" dy="0">Leon requested 1 cup rice</tspan></text><text x="412" y="484" fill="#6B7280" font-size="14" font-weight="600" font-family="Inter, SF Pro Display, Arial, sans-serif" letter-spacing="0"><tspan x="412" dy="0">Miso veggie rice</tspan></text><rect x="412" y="506" width="118" height="36" rx="8" fill="#2A9D8F" stroke-width="1"/><g transform="translate(430 513) scale(0.9166666666666666)"><path stroke="#FFFFFF" stroke-width="2" stroke-linecap="round" stroke-linejoin="round" fill="none" d="M5 13L10 18L20 6"/></g><text x="462" y="530" fill="#FFFFFF" font-size="13" font-weight="800" font-family="Inter, SF Pro Display, Arial, sans-serif" letter-spacing="0"><tspan x="462" dy="0">Approve</tspan></text><rect x="544" y="506" width="112" height="36" rx="8" fill="#FFFFFF" stroke="#FDEEEA" stroke-width="1"/><g transform="translate(562 513) scale(0.9166666666666666)"><path stroke="#EF6351" stroke-width="2" stroke-linecap="round" stroke-linejoin="round" fill="none" d="M6 6L18 18M18 6L6 18"/></g><text x="594" y="530" fill="#EF6351" font-size="13" font-weight="800" font-family="Inter, SF Pro Display, Arial, sans-serif" letter-spacing="0"><tspan x="594" dy="0">Decline</tspan></text><rect x="718" y="506" width="112" height="36" rx="18" fill="#FAF8F2" stroke="#D6D9DE" stroke-width="1"/><text x="774" y="530" fill="#1F2933" font-size="13" font-weight="700" font-family="Inter, SF Pro Display, Arial, sans-serif" letter-spacing="0" text-anchor="middle"><tspan x="774" dy="0">View recipe</tspan></text><rect x="330" y="592" width="578" height="132" rx="8" fill="#FFFFFF" stroke="#D6D9DE" stroke-width="1"/><circle cx="372" cy="634" r="24" fill="#3D7FF0"/><text x="372" y="641" fill="#FFFFFF" font-size="15" font-weight="900" font-family="Inter, SF Pro Display, Arial, sans-serif" letter-spacing="0" text-anchor="middle"><tspan x="372" dy="0">V</tspan></text><text x="412" y="626" fill="#1F2933" font-size="20" font-weight="900" font-family="Inter, SF Pro Display, Arial, sans-serif" letter-spacing="0"><tspan x="412" dy="0">Vinayak requested 3 garlic cloves</tspan></text><text x="412" y="654" fill="#6B7280" font-size="14" font-weight="600" font-family="Inter, SF Pro Display, Arial, sans-serif" letter-spacing="0"><tspan x="412" dy="0">Tomato pasta</tspan></text><rect x="412" y="676" width="118" height="36" rx="8" fill="#2A9D8F" stroke-width="1"/><g transform="translate(430 683) scale(0.9166666666666666)"><path stroke="#FFFFFF" stroke-width="2" stroke-linecap="round" stroke-linejoin="round" fill="none" d="M5 13L10 18L20 6"/></g><text x="462" y="700" fill="#FFFFFF" font-size="13" font-weight="800" font-family="Inter, SF Pro Display, Arial, sans-serif" letter-spacing="0"><tspan x="462" dy="0">Approve</tspan></text><rect x="544" y="676" width="112" height="36" rx="8" fill="#FFFFFF" stroke="#FDEEEA" stroke-width="1"/><g transform="translate(562 683) scale(0.9166666666666666)"><path stroke="#EF6351" stroke-width="2" stroke-linecap="round" stroke-linejoin="round" fill="none" d="M6 6L18 18M18 6L6 18"/></g><text x="594" y="700" fill="#EF6351" font-size="13" font-weight="800" font-family="Inter, SF Pro Display, Arial, sans-serif" letter-spacing="0"><tspan x="594" dy="0">Decline</tspan></text><rect x="718" y="676" width="112" height="36" rx="18" fill="#FAF8F2" stroke="#D6D9DE" stroke-width="1"/><text x="774" y="700" fill="#1F2933" font-size="13" font-weight="700" font-family="Inter, SF Pro Display, Arial, sans-serif" letter-spacing="0" text-anchor="middle"><tspan x="774" dy="0">View recipe</tspan></text><rect x="984" y="126" width="354" height="354" rx="8" fill="#FFFFFF" stroke="#D6D9DE" stroke-width="1"/><text x="1014" y="174" fill="#1F2933" font-size="23" font-weight="900" font-family="Inter, SF Pro Display, Arial, sans-serif" letter-spacing="0"><tspan x="1014" dy="0">Approval rules</tspan></text><circle cx="1022" cy="222" r="16" fill="#E9F7F3" stroke="#2A9D8F" stroke-width="1"/><g transform="translate(1013 213) scale(0.75)"><path stroke="#1F7A70" stroke-width="2" stroke-linecap="round" stroke-linejoin="round" fill="none" d="M5 13L10 18L20 6"/></g><text x="1056" y="218" fill="#1F2933" font-size="16" font-weight="850" font-family="Inter, SF Pro Display, Arial, sans-serif" letter-spacing="0"><tspan x="1056" dy="0">Consent first</tspan></text><text x="1056" y="240" fill="#6B7280" font-size="12" font-weight="600" font-family="Inter, SF Pro Display, Arial, sans-serif" letter-spacing="0"><tspan x="1056" dy="0">No ingredient is deducted until approved.</tspan></text><circle cx="1022" cy="294" r="16" fill="#FFF4D7" stroke="#F4B942" stroke-width="1"/><g transform="translate(1013 285) scale(0.75)"><path stroke="#1F2933" stroke-width="2" stroke-linecap="round" stroke-linejoin="round" fill="none" d="M5 13L10 18L20 6"/></g><text x="1056" y="290" fill="#1F2933" font-size="16" font-weight="850" font-family="Inter, SF Pro Display, Arial, sans-serif" letter-spacing="0"><tspan x="1056" dy="0">Quantity check</tspan></text><text x="1056" y="312" fill="#6B7280" font-size="12" font-weight="600" font-family="Inter, SF Pro Display, Arial, sans-serif" letter-spacing="0"><tspan x="1056" dy="0">Requests compare against current inventory.</tspan></text><circle cx="1022" cy="366" r="16" fill="#E9F7F3" stroke="#2A9D8F" stroke-width="1"/><g transform="translate(1013 357) scale(0.75)"><path stroke="#1F7A70" stroke-width="2" stroke-linecap="round" stroke-linejoin="round" fill="none" d="M5 13L10 18L20 6"/></g><text x="1056" y="362" fill="#1F2933" font-size="16" font-weight="850" font-family="Inter, SF Pro Display, Arial, sans-serif" letter-spacing="0"><tspan x="1056" dy="0">Audit trail</tspan></text><text x="1056" y="384" fill="#6B7280" font-size="12" font-weight="600" font-family="Inter, SF Pro Display, Arial, sans-serif" letter-spacing="0"><tspan x="1056" dy="0">Each approval appears in group activity.</tspan></text><rect x="984" y="518" width="354" height="378" rx="8" fill="#FFFFFF" stroke="#D6D9DE" stroke-width="1"/><text x="1014" y="566" fill="#1F2933" font-size="23" font-weight="900" font-family="Inter, SF Pro Display, Arial, sans-serif" letter-spacing="0"><tspan x="1014" dy="0">Inventory impact</tspan></text><text x="1014" y="596" fill="#6B7280" font-size="14" font-weight="500" font-family="Inter, SF Pro Display, Arial, sans-serif" letter-spacing="0"><tspan x="1014" dy="0">Preview what changes after approval.</tspan></text><text x="1014" y="646" fill="#1F2933" font-size="16" font-weight="850" font-family="Inter, SF Pro Display, Arial, sans-serif" letter-spacing="0"><tspan x="1014" dy="0">Eggs</tspan></text><text x="1198" y="646" fill="#6B7280" font-size="14" font-weight="700" font-family="Inter, SF Pro Display, Arial, sans-serif" letter-spacing="0"><tspan x="1198" dy="0">6 -&gt; 4</tspan></text><rect x="1014" y="668" width="270" height="12" rx="6" fill="#EEF0F2"/><rect x="1014" y="668" width="181" height="12" rx="6" fill="#EF6351"/><text x="1014" y="718" fill="#1F2933" font-size="16" font-weight="850" font-family="Inter, SF Pro Display, Arial, sans-serif" letter-spacing="0"><tspan x="1014" dy="0">Rice</tspan></text><text x="1198" y="718" fill="#6B7280" font-size="14" font-weight="700" font-family="Inter, SF Pro Display, Arial, sans-serif" letter-spacing="0"><tspan x="1198" dy="0">4 cups -&gt; 3 cups</tspan></text><rect x="1014" y="740" width="270" height="12" rx="6" fill="#EEF0F2"/><rect x="1014" y="740" width="203" height="12" rx="6" fill="#F4B942"/><text x="1014" y="790" fill="#1F2933" font-size="16" font-weight="850" font-family="Inter, SF Pro Display, Arial, sans-serif" letter-spacing="0"><tspan x="1014" dy="0">Garlic</tspan></text><text x="1198" y="790" fill="#6B7280" font-size="14" font-weight="700" font-family="Inter, SF Pro Display, Arial, sans-serif" letter-spacing="0"><tspan x="1198" dy="0">8 -&gt; 5 cloves</tspan></text><rect x="1014" y="812" width="270" height="12" rx="6" fill="#EEF0F2"/><rect x="1014" y="812" width="167" height="12" rx="6" fill="#4C3A51"/>
</svg>
